<svg height="654" width="720" xmlns="http://www.w3.org/2000/svg">
<rect height="654" fill="#555" width="720"></rect>
<text fill="#7f7" font-family="Courier New" font-size="12" xml:space="preserve">
<tspan x="10" y="26">8 megabytes installed</tspan>
<tspan x="10" y="42"></tspan>
<tspan x="10" y="58">node_modules</tspan>
<tspan x="10" y="74">└─┬ archiver@1.3.0 </tspan>
<tspan x="10" y="90">  ├─┬ archiver-utils@1.3.0 </tspan>
<tspan x="10" y="106">  │ ├── graceful-fs@4.1.11 </tspan>
<tspan x="10" y="122">  │ ├── lazystream@1.0.0 </tspan>
<tspan x="10" y="138">  │ └─┬ normalize-path@2.1.1 </tspan>
<tspan x="10" y="154">  │   └── remove-trailing-separator@1.0.1 </tspan>
<tspan x="10" y="170">  ├── async@2.3.0 </tspan>
<tspan x="10" y="186">  ├── buffer-crc32@0.2.13 </tspan>
<tspan x="10" y="202">  ├─┬ glob@7.1.1 </tspan>
<tspan x="10" y="218">  │ ├── fs.realpath@1.0.0 </tspan>
<tspan x="10" y="234">  │ ├─┬ inflight@1.0.6 </tspan>
<tspan x="10" y="250">  │ │ └── wrappy@1.0.2 </tspan>
<tspan x="10" y="266">  │ ├── inherits@2.0.3 </tspan>
<tspan x="10" y="282">  │ ├─┬ minimatch@3.0.3 </tspan>
<tspan x="10" y="298">  │ │ └─┬ brace-expansion@1.1.7 </tspan>
<tspan x="10" y="314">  │ │   ├── balanced-match@0.4.2 </tspan>
<tspan x="10" y="330">  │ │   └── concat-map@0.0.1 </tspan>
<tspan x="10" y="346">  │ ├── once@1.4.0 </tspan>
<tspan x="10" y="362">  │ └── path-is-absolute@1.0.1 </tspan>
<tspan x="10" y="378">  ├── lodash@4.17.4 </tspan>
<tspan x="10" y="394">  ├─┬ readable-stream@2.2.9 </tspan>
<tspan x="10" y="410">  │ ├── buffer-shims@1.0.0 </tspan>
<tspan x="10" y="426">  │ ├── core-util-is@1.0.2 </tspan>
<tspan x="10" y="442">  │ ├── isarray@1.0.0 </tspan>
<tspan x="10" y="458">  │ ├── process-nextick-args@1.0.7 </tspan>
<tspan x="10" y="474">  │ ├── string_decoder@1.0.0 </tspan>
<tspan x="10" y="490">  │ └── util-deprecate@1.0.2 </tspan>
<tspan x="10" y="506">  ├─┬ tar-stream@1.5.2 </tspan>
<tspan x="10" y="522">  │ ├── bl@1.2.0 </tspan>
<tspan x="10" y="538">  │ ├── end-of-stream@1.4.0 </tspan>
<tspan x="10" y="554">  │ └── xtend@4.0.1 </tspan>
<tspan x="10" y="570">  ├── walkdir@0.0.11 </tspan>
<tspan x="10" y="586">  └─┬ zip-stream@1.1.1 </tspan>
<tspan x="10" y="602">    └─┬ compress-commons@1.2.0 </tspan>
<tspan x="10" y="618">      └─┬ crc32-stream@2.0.0 </tspan>
<tspan x="10" y="634">        └── crc@3.4.4</tspan>
</text>
</svg>
